HIERARCHY
ROOT Hips
{
	OFFSET -0.001795 -0.223333 0.028219
	CHANNELS 6 Xposition Yposition Zposition Zrotation Yrotation Xrotation 
	JOINT LeftUpLeg
	{
		OFFSET 0.069520 -0.091406 -0.006815
		CHANNELS 3 Zrotation Yrotation Xrotation
		JOINT LeftLeg
		{
			OFFSET 0.034277 -0.375199 -0.004496
			CHANNELS 3 Zrotation Yrotation Xrotation
			JOINT LeftFoot
			{
				OFFSET -0.013596 -0.397961 -0.043693
				CHANNELS 3 Zrotation Yrotation Xrotation
				JOINT LeftToe
				{
					OFFSET 0.026358 -0.055791 0.119288
					CHANNELS 3 Zrotation Yrotation Xrotation
					End Site
					{
						OFFSET 0.000000 0.000000 0.000000
					}
				}
			}
		}
	}
	JOINT RightUpLeg
	{
		OFFSET -0.067670 -0.090522 -0.004320
		CHANNELS 3 Zrotation Yrotation Xrotation
		JOINT RightLeg
		{
			OFFSET -0.038290 -0.382569 -0.008850
			CHANNELS 3 Zrotation Yrotation Xrotation
			JOINT RightFoot
			{
				OFFSET 0.015774 -0.398415 -0.042312
				CHANNELS 3 Zrotation Yrotation Xrotation
				JOINT RightToe
				{
					OFFSET -0.025372 -0.048144 0.123348
					CHANNELS 3 Zrotation Yrotation Xrotation
					End Site
					{
						OFFSET 0.000000 0.000000 0.000000
					}
				}
			}
		}
	}
	JOINT Spine
	{
		OFFSET -0.002533 0.108963 -0.026696
		CHANNELS 3 Zrotation Yrotation Xrotation
		JOINT Spine1
		{
			OFFSET 0.005487 0.135180 0.001092
			CHANNELS 3 Zrotation Yrotation Xrotation
			JOINT Spine2
			{
				OFFSET 0.001457 0.052922 0.025425
				CHANNELS 3 Zrotation Yrotation Xrotation
				JOINT Neck
				{
					OFFSET -0.002778 0.213870 -0.042857
					CHANNELS 3 Zrotation Yrotation Xrotation
					JOINT Head
					{
						OFFSET 0.005152 0.064970 0.051349
						CHANNELS 3 Zrotation Yrotation Xrotation
						End Site
						{
							OFFSET 0.000000 0.000000 0.000000
						}
					}
				}
				JOINT LeftShoulder
				{
					OFFSET 0.078845 0.121749 -0.034090
					CHANNELS 3 Zrotation Yrotation Xrotation
					JOINT LeftArm
					{
						OFFSET 0.090977 0.030469 -0.008868
						CHANNELS 3 Zrotation Yrotation Xrotation
						JOINT LeftForeArm
						{
							OFFSET 0.259612 -0.012772 -0.027456
							CHANNELS 3 Zrotation Yrotation Xrotation
							JOINT LeftHand
							{
								OFFSET 0.249234 0.008986 -0.001171
								CHANNELS 3 Zrotation Yrotation Xrotation
								End Site
								{
									OFFSET 0.000000 0.000000 0.000000
								}
							}
						}
					}
				}
				JOINT RightShoulder
				{
					OFFSET -0.081759 0.118833 -0.038615
					CHANNELS 3 Zrotation Yrotation Xrotation
					JOINT RightArm
					{
						OFFSET -0.096012 0.032551 -0.009143
						CHANNELS 3 Zrotation Yrotation Xrotation
						JOINT RightForeArm
						{
							OFFSET -0.253742 -0.013329 -0.021401
							CHANNELS 3 Zrotation Yrotation Xrotation
							JOINT RightHand
							{
								OFFSET -0.255298 0.007772 -0.005559
								CHANNELS 3 Zrotation Yrotation Xrotation
								End Site
								{
									OFFSET 0.000000 0.000000 0.000000
								}
							}
						}
					}
				}
			}
		}
	}
}
MOTION
Frames: 5
Frame Time: 0.050000
0.000000 0.799228 0.000000 -2.151264 2.330251 24.674680 7.568082 -2.875789 -75.253235 -10.069288 3.806972 46.064272 7.746635 17.519254 3.595120 0.000000 0.000000 0.000000 -8.134776 1.546653 -59.240838 13.064457 -12.279355 86.263664 -7.626954 -19.116132 3.334565 0.000000 0.000000 0.000000 -5.975530 0.390998 60.577197 0.462512 0.185220 -10.692085 -0.164345 2.072411 19.264692 0.887367 1.488183 -26.295984 0.000000 0.000000 0.000000 -2.621206 -23.189776 9.334268 -32.942809 -28.278091 1.598986 52.952972 -41.828376 -18.650808 0.000000 0.000000 0.000000 6.663261 15.477961 7.222476 53.839022 27.790579 6.034101 -54.531072 68.514763 -30.827259 0.000000 0.000000 0.000000 
0.014424 0.797422 0.044812 -4.468224 0.981378 24.916990 8.751104 -1.168200 -74.184823 -9.877998 4.234201 50.268661 6.823222 15.223512 1.327069 0.000000 0.000000 0.000000 -6.337242 3.323975 -66.828140 13.916987 -12.510264 88.065602 -6.438973 -15.897711 -2.802201 0.000000 0.000000 0.000000 -5.513216 0.674546 59.985790 0.961372 -0.178230 -5.944348 -0.995391 3.991930 13.815406 2.499743 0.460229 -20.822622 0.000000 0.000000 0.000000 -9.872694 -26.250382 11.473179 -26.082159 -24.019637 0.358013 47.589498 -40.997073 -16.442111 0.000000 0.000000 0.000000 15.711099 18.874756 10.872503 45.459642 23.361064 2.819977 -68.890737 65.289651 -39.201309 0.000000 0.000000 0.000000 
0.028663 0.796372 0.088656 -3.658500 1.695280 22.832183 7.131273 -2.621418 -70.734824 -9.294436 3.965566 54.119668 7.023150 14.707138 -5.246306 0.000000 0.000000 0.000000 -9.604336 1.019415 -70.285282 16.656270 -15.393563 84.599429 -7.535781 -18.712828 -3.710227 0.000000 0.000000 0.000000 -5.665517 0.418006 63.116859 1.222420 -0.213067 -7.504684 1.002254 3.594885 14.926392 1.911499 0.491046 -18.417255 0.000000 0.000000 0.000000 -11.722073 -28.317538 12.953164 -28.394338 -24.311850 0.635709 43.102138 -38.629213 -13.646567 0.000000 0.000000 0.000000 12.153803 17.617680 9.169440 46.463997 24.084168 3.434252 -64.498775 65.612958 -36.638747 0.000000 0.000000 0.000000 
0.041538 0.794382 0.130975 -4.662489 0.706615 22.032159 6.374151 -2.585210 -69.153680 -8.456573 3.746422 57.237795 7.077392 14.136571 -8.839687 0.000000 0.000000 0.000000 -9.435177 1.661172 -76.195953 17.788759 -14.438959 77.924226 -8.917773 -22.420065 -1.479377 0.000000 0.000000 0.000000 -4.711955 0.133068 63.421876 0.036646 0.098712 -3.816157 1.280764 5.033226 11.521206 3.697739 -0.443040 -17.790727 0.000000 0.000000 0.000000 -13.926419 -27.757014 12.602416 -28.967918 -22.697142 0.698364 38.715542 -42.763968 -13.619967 0.000000 0.000000 0.000000 12.025534 15.115164 7.955067 48.454552 21.202998 2.908576 -71.189155 68.191877 -43.413881 0.000000 0.000000 0.000000 
0.053148 0.789796 0.172652 -4.337674 0.847375 20.937370 5.012628 -3.485264 -67.875730 -9.154336 4.480097 61.985207 8.188729 16.729665 -10.184550 0.000000 0.000000 0.000000 -10.915500 0.452565 -78.712491 20.426850 -14.854684 69.399097 -10.076906 -24.826661 3.144518 0.000000 0.000000 0.000000 -3.368410 -0.941684 64.896814 -0.703039 0.409627 -4.629927 0.777467 4.168231 12.470887 4.535512 -0.914212 -18.656911 0.000000 0.000000 0.000000 -15.723294 -28.694281 13.623175 -31.098518 -21.288182 0.575462 35.916805 -44.290916 -12.887892 0.000000 0.000000 0.000000 12.364664 14.755620 7.633800 49.018231 19.578047 2.197091 -74.849016 69.001457 -47.280837 0.000000 0.000000 0.000000 
